<svg xmlns="http://www.w3.org/2000/svg" viewBox="0 0 3040 405"><defs><style>.cls-1{fill:#292929;}.cls-2{fill:#ff6a3d;}</style></defs><g id="Layer_2" data-name="Layer 2"><path class="cls-1" d="M522,357.41l-58.64-58.94-.67-.7L221.14,56.22a71,71,0,0,0-50.23-20.8H46.73A13.93,13.93,0,0,0,32.81,49.35v271a50.11,50.11,0,0,0,50.11,50.12h45.79a6.92,6.92,0,0,0,6.91-6.9l.46-248.29c0-11.43,13.84-8.43,21.92-.35L395.61,352.51c9.75,9.77,24.43,16.67,38.24,16.67h83.28A6.9,6.9,0,0,0,522,357.41Z"/><path class="cls-1" d="M493.22,210.52,670.16,36.71a1.27,1.27,0,0,0-.9-2.17l-43.61.18a27.86,27.86,0,0,0-19.49,8.06L428.61,217.2a1.26,1.26,0,0,0,.89,2.16h42.21A30.6,30.6,0,0,0,493.22,210.52Z"/><path class="cls-1" d="M236.65,275.68H398.76a4.13,4.13,0,0,0,2.83-7.13l-40.07-37.78A47.07,47.07,0,0,0,329.24,218H169.14a4.13,4.13,0,0,0-2.91,7.06l37.27,37A47,47,0,0,0,236.65,275.68Z"/><path class="cls-2" d="M767.63,35.46H706.44a4,4,0,0,0-2.82,1.16c-4.41,4.41-20.48,19-31.93,30.45a4,4,0,0,0-1.16,2.82v16a6,6,0,0,0,6,6h73.49a4,4,0,0,0,2.83-1.17L772.5,71.17a4,4,0,0,0,1.17-2.83V41.5A6,6,0,0,0,767.63,35.46Z"/><path class="cls-1" d="M751.58,107.33H711.1a8.23,8.23,0,0,0-6.11,2.72l-32.34,35.87a8.28,8.28,0,0,0-2.12,5.52V360.79a8.24,8.24,0,0,0,8.24,8.24H720a53.84,53.84,0,0,0,53.68-53.68V115.57a8.24,8.24,0,0,0-8.24-8.24Z"/><path class="cls-1" d="M892.05,107.43h30.12q27.35,0,37,27.33,13,24.15,53.34,102.57l4.77,1.46q3.59,0,17.12-28.79,32.64-63.3,49.23-92.36,10.48-10.22,27.33-10.21h28.67q8.22,0,8.22,13,6.9,100,6.9,145v.66q1.34,26.81,1.33,28.67-2.92,2.77-5.44,2.78h-43.13q-6.11,0-6.1-17.11a520.62,520.62,0,0,1-2.79-56.13V223q-.39-9.56-3.45-9.55h-2q-3.18.13-12.34,20.56-13.39,25.75-26,47.11-6.11,16.45-13,16.45H991.31q-7.71,0-20.57-30.78-6.11-8.76-15-27.34l-13.66-25.34a8.36,8.36,0,0,0-4.12-1.33h-.66q-4.11,0-4.11,24.55V251q0,45.92-4.12,45.91l-3.45.66H882.5q-5.44,0-5.44-7.56,0-43.4,8.89-177.81Q887.95,107.43,892.05,107.43Z"/><path class="cls-1" d="M1288.94,107.43h34.64q11.14,0,14.86,13.66,4.24,6.9,44.85,85.46,11.81,20.56,43.52,82.26,2,1.47,2,4.78v1.33q0,2.65-8.09,2.65h-20.44q-28.66,0-36-17.65-7.29-14.85-12.87-14.86H1350c-5.48,0-8.85-.26-10.08-.79a131.78,131.78,0,0,1-13.67.79q-12.21,0-33.17-.79c-1.86-.62-2.79-1.28-2.79-2v-2q11.81-29.19,23.75-29.19,4.38-3.06,15.66-4.78a5.61,5.61,0,0,0,2.65-4.78v-2q0-1.06-21-41.4-5.71-10.87-8.89-10.88h-.66q-4.78,0-17.65,29.19-37.29,69.14-45.52,86.25-9.81,14.87-32.64,14.86h-21.63q-9.56,0-9.55-2.65,0-2.25,80.81-154.85Q1270,107.43,1288.94,107.43Z"/><path class="cls-1" d="M1640.06,219.55Q1622.27,189,1622.28,184a17,17,0,0,1,1.32-7.43Q1657,114.85,1657,112.2v-2q-1.07-2.77-4.78-2.78h-27.33q-18.18,0-29.46,13L1568.8,169q-4.9,14.33-15.66,14.33h-93q-8.24,0-8.23,8.22v99.12q0,6.9,5.44,6.9h43.79q6.22,0,6.23-9.55V231.23q0-9.55,9.56-9.56h8.22q18.72,0,47.11-.66h.66q9.42,0,15.13,10.88,15,28.8,27.33,49.23,6.9,16.45,30.13,16.45h31.44c1.86-1.15,2.79-2.08,2.79-2.78v-.67Q1662.61,260.68,1640.06,219.55Z"/><path class="cls-1" d="M1458,151.88h41.8q7.56,0,7.56-9.56v-26q0-8.89-8.22-8.89h-39q-8.24,0-8.23,8.22v30.12Q1451.9,151,1458,151.88Z"/><path class="cls-1" d="M1749.14,107.82h188.29q7.42,0,7.43,8.1,0,28.39-25.74,36H1726.71q-6.11,0-6.1-7.43v-1.33q0-24.95,21-34A17.33,17.33,0,0,1,1749.14,107.82Zm10.08,74.58H1895.5q7.43,0,7.43,6.1v2.65q0,18.45-21.76,27.87a20.88,20.88,0,0,1-5.31.66H1785q-9.43,0-9.43,9.42v13.54q0,8.9,7.43,8.89h122q32.37,0,39.27,27.07c0,1.06.23,4.47.67,10.21q0,8.76-10.08,8.76H1764q-25.61,0-31.18-7.43-12.21-9.81-12.21-28.52V216.23q0-23.08,22.42-32.51A107.35,107.35,0,0,1,1759.22,182.4Z"/><path class="cls-1" d="M1995.43,107.82h199.3q14.46,0,25.74,19.64.66,6.9.66,10.88v31.19q0,20.29-15.65,27.73c-2.22,1.5-3.32,3.32-3.32,5.44q0,2.25,10.75,9.42,8.22,8.49,8.22,22.42v32.51q0,30.52-38.61,30.52h-183q-10.89,0-10.88-6.1V210.79q0-15.39,21-26.4a22,22,0,0,1,5.44-.67h138.27q11.55,0,11.54-11.54v-8.76q0-11.53-11.54-11.54H2016.39q-16.85,0-27.07-23.09a34.53,34.53,0,0,1-.66-6.1v-9.43Q1988.66,107.83,1995.43,107.82Zm50.82,126.06v8.76q0,17,8.09,17h23.75q10,0,23.09-.66l3.32.66q10.35-.66,19-.66h31.19q10.22,0,10.21-10.22V231.1q0-9.42-11.54-9.43h-95.54Q2046.24,221.67,2046.25,233.88Z"/><path class="cls-1" d="M2285.1,107.82h188.29q7.44,0,7.43,8.1,0,28.39-25.74,36h-192.4q-6.1,0-6.11-7.43v-1.33q0-24.95,21-34A17.36,17.36,0,0,1,2285.1,107.82Zm10.09,74.58h136.27q7.44,0,7.43,6.1v2.65q0,18.45-21.76,27.87a20.88,20.88,0,0,1-5.31.66h-90.89q-9.42,0-9.42,9.42v13.54q0,8.9,7.43,8.89h121.94q32.38,0,39.28,27.07c0,1.06.22,4.47.66,10.21q0,8.76-10.08,8.76H2300q-25.61,0-31.18-7.43-12.21-9.81-12.21-28.52V216.23q0-23.08,22.43-32.51A107.35,107.35,0,0,1,2295.19,182.4Z"/><path class="cls-1" d="M2532.05,107.82h10.22q37.55,0,37.55,36.89V245q0,10.22,13.67,10.22H2715.7q17.78,0,26,23.88A34.68,34.68,0,0,1,2743,290q-.41,7.56-6.1,7.56h-181q-22.29,0-29.32-17.78l-.66-8.09V115.26Q2526,107.82,2532.05,107.82Z"/><path class="cls-1" d="M2768.92,107.82h10.21q37.56,0,37.56,36.89V245q0,10.22,13.66,10.22h122.21q17.78,0,26,23.88A35,35,0,0,1,2979.9,290q-.41,7.56-6.11,7.56h-181q-22.29,0-29.32-17.78l-.67-8.09V115.26Q2762.81,107.82,2768.92,107.82Z"/></g></svg>